<svg xmlns="http://www.w3.org/2000/svg" version="1.1" xmlns:xlink="http://www.w3.org/1999/xlink" xmlns:svgjs="http://svgjs.com/svgjs" width="1440" height="560" preserveAspectRatio="none" viewBox="0 0 1440 560"><g mask="url(&quot;#SvgjsMask1072&quot;)" fill="none"><rect width="1440" height="560" x="0" y="0" fill="url(#SvgjsLinearGradient1073)"></rect><path d="M475.908,550.889C494.269,550.767,509.595,538.48,518.816,522.603C528.085,506.644,531.093,487.272,522.27,471.063C513.081,454.182,495.123,443.346,475.908,443.775C457.353,444.189,441.976,456.812,432.995,473.054C424.328,488.728,423.356,507.494,432.004,523.179C440.96,539.423,457.359,551.012,475.908,550.889" fill="rgba(135, 160, 135, 1)" class="triangle-float3"></path><path d="M973.329,289.707C1033.476,290.567,1091.894,264.805,1123.544,213.652C1156.875,159.783,1161.298,91.546,1130.02,36.459C1098.373,-19.277,1037.199,-56.268,973.329,-50.908C916.097,-46.105,884.048,9.076,856.406,59.42C830.221,107.11,805.741,160.951,830.371,209.462C856.887,261.686,914.765,288.87,973.329,289.707" fill="rgba(135, 160, 135, 1)" class="triangle-float1"></path><path d="M415.12,680.588C466.932,682.487,520.015,662.833,546.05,617.997C572.178,573,564.526,516.116,535.825,472.715C509.869,433.465,462.138,418.118,415.12,420.008C371.633,421.756,332.797,444.635,310.128,481.787C286.384,520.702,278.535,568.659,299.824,608.97C322.469,651.849,366.662,678.812,415.12,680.588" fill="rgba(135, 160, 135, 1)" class="triangle-float3"></path><path d="M148.98,597.816C192.895,597.051,228.216,568.294,252.716,531.84C281.393,489.171,312.537,436.879,287.214,392.138C261.708,347.072,200.76,348.025,148.98,348.557C98.527,349.076,41.196,351.459,15.582,394.93C-10.27,438.804,10.812,493.017,38.789,535.567C63.63,573.347,103.772,598.604,148.98,597.816" fill="rgba(135, 160, 135, 1)" class="triangle-float1"></path><path d="M573.617,419.218C607.917,421.262,645.52,414.943,663.825,385.863C683.051,355.319,678.641,314.681,658.1,285.005C639.907,258.721,605.575,256.255,573.617,255.539C539.754,254.78,499.912,252.127,482.313,281.067C464.356,310.596,481.237,347.284,500.292,376.116C517.046,401.467,543.284,417.41,573.617,419.218" fill="rgba(135, 160, 135, 1)" class="triangle-float2"></path><path d="M1177.843,506.777C1202.251,506.63,1220.752,487.275,1232.619,465.946C1244.096,445.318,1248.232,420.92,1237.232,400.033C1225.486,377.729,1203.041,362.641,1177.843,361.937C1151.408,361.198,1124.873,373.219,1112.41,396.543C1100.504,418.825,1109.016,444.89,1121.911,466.614C1134.468,487.769,1153.242,506.925,1177.843,506.777" fill="rgba(135, 160, 135, 1)" class="triangle-float3"></path><path d="M1310.615,462.554C1338.626,462.597,1365.287,448.174,1378.626,423.543C1391.41,399.937,1386.301,371.569,1372.292,348.668C1358.949,326.856,1336.16,313.47,1310.615,312.364C1282.808,311.16,1253.43,319.131,1238.942,342.896C1223.964,367.465,1228.178,398.65,1242.964,423.335C1257.32,447.301,1282.678,462.511,1310.615,462.554" fill="rgba(135, 160, 135, 1)" class="triangle-float2"></path></g><defs><mask id="SvgjsMask1072"><rect width="1440" height="560" fill="#ffffff"></rect></mask><linearGradient x1="84.72%" y1="139.29%" x2="15.28%" y2="-39.29%" gradientUnits="userSpaceOnUse" id="SvgjsLinearGradient1073"><stop stop-color="rgba(78, 102, 78, 1)" offset="0"></stop><stop stop-color="rgba(123, 152, 124, 1)" offset="1"></stop></linearGradient><style>
            @keyframes float1 {
                0%{transform: translate(0, 0)}
                50%{transform: translate(-10px, 0)}
                100%{transform: translate(0, 0)}
            }

            .triangle-float1 {
                animation: float1 5s infinite;
            }

            @keyframes float2 {
                0%{transform: translate(0, 0)}
                50%{transform: translate(-5px, -5px)}
                100%{transform: translate(0, 0)}
            }

            .triangle-float2 {
                animation: float2 4s infinite;
            }

            @keyframes float3 {
                0%{transform: translate(0, 0)}
                50%{transform: translate(0, -10px)}
                100%{transform: translate(0, 0)}
            }

            .triangle-float3 {
                animation: float3 6s infinite;
            }
        </style></defs></svg>